<svg width="44" height="44" viewBox="0 0 44 44" fill="none" xmlns="http://www.w3.org/2000/svg">
<path d="M0 8C0 3.58172 3.58172 0 8 0H36C40.4183 0 44 3.58172 44 8V36C44 40.4183 40.4183 44 36 44H8C3.58172 44 0 40.4183 0 36V8Z" fill="#03A923"/>
<path d="M18 21.9999L20.6667 24.6666L26 19.3333M12.6667 15.5999C12.6667 14.8219 12.9757 14.0758 13.5258 13.5257C14.0759 12.9756 14.822 12.6665 15.6 12.6665H16.9333C17.7079 12.6661 18.4508 12.3594 19 11.8132L19.9333 10.8799C20.2059 10.6057 20.53 10.3882 20.887 10.2398C21.244 10.0913 21.6267 10.0149 22.0133 10.0149C22.3999 10.0149 22.7827 10.0913 23.1397 10.2398C23.4966 10.3882 23.8207 10.6057 24.0933 10.8799L25.0267 11.8132C25.576 12.3599 26.32 12.6665 27.0933 12.6665H28.4267C29.2046 12.6665 29.9507 12.9756 30.5009 13.5257C31.051 14.0758 31.36 14.8219 31.36 15.5999V16.9332C31.36 17.7065 31.6667 18.4505 32.2133 18.9999L33.1467 19.9332C33.4208 20.2058 33.6383 20.5299 33.7868 20.8869C33.9352 21.2438 34.0117 21.6266 34.0117 22.0132C34.0117 22.3998 33.9352 22.7826 33.7868 23.1396C33.6383 23.4965 33.4208 23.8206 33.1467 24.0932L32.2133 25.0265C31.6672 25.5758 31.3604 26.3187 31.36 27.0932V28.4265C31.36 29.2045 31.051 29.9506 30.5009 30.5007C29.9507 31.0508 29.2046 31.3599 28.4267 31.3599H27.0933C26.3188 31.3603 25.5759 31.6671 25.0267 32.2132L24.0933 33.1465C23.8207 33.4207 23.4966 33.6382 23.1397 33.7867C22.7827 33.9351 22.3999 34.0115 22.0133 34.0115C21.6267 34.0115 21.244 33.9351 20.887 33.7867C20.53 33.6382 20.2059 33.4207 19.9333 33.1465L19 32.2132C18.4508 31.6671 17.7079 31.3603 16.9333 31.3599H15.6C14.822 31.3599 14.0759 31.0508 13.5258 30.5007C12.9757 29.9506 12.6667 29.2045 12.6667 28.4265V27.0932C12.6662 26.3187 12.3595 25.5758 11.8133 25.0265L10.88 24.0932C10.6059 23.8206 10.3883 23.4965 10.2399 23.1396C10.0914 22.7826 10.015 22.3998 10.015 22.0132C10.015 21.6266 10.0914 21.2438 10.2399 20.8869C10.3883 20.5299 10.6059 20.2058 10.88 19.9332L11.8133 18.9999C12.3595 18.4507 12.6662 17.7077 12.6667 16.9332V15.5999Z" stroke="white" stroke-width="2" stroke-linecap="round" stroke-linejoin="round"/>
</svg>
